<?xml version="1.0" encoding="UTF-8" standalone="no"?>
<!-- Created with Inkscape (http://www.inkscape.org/) -->

<svg
   xmlns:dc="http://purl.org/dc/elements/1.1/"
   xmlns:cc="http://creativecommons.org/ns#"
   xmlns:rdf="http://www.w3.org/1999/02/22-rdf-syntax-ns#"
   xmlns:svg="http://www.w3.org/2000/svg"
   xmlns="http://www.w3.org/2000/svg"
   xmlns:sodipodi="http://sodipodi.sourceforge.net/DTD/sodipodi-0.dtd"
   xmlns:inkscape="http://www.inkscape.org/namespaces/inkscape"
   width="297mm"
   height="210mm"
   viewBox="0 0 297 210"
   version="1.1"
   id="svg8"
   inkscape:version="0.92.4 (5da689c313, 2019-01-14)"
   sodipodi:docname="Programa de actividades2.svg">
  <defs
     id="defs2">
    <pattern
       y="0"
       x="0"
       height="6"
       width="6"
       patternUnits="userSpaceOnUse"
       id="EMFhbasepattern" />
    <pattern
       y="0"
       x="0"
       height="6"
       width="6"
       patternUnits="userSpaceOnUse"
       id="EMFhbasepattern-9" />
    <pattern
       y="0"
       x="0"
       height="6"
       width="6"
       patternUnits="userSpaceOnUse"
       id="EMFhbasepattern-93" />
    <pattern
       y="0"
       x="0"
       height="6"
       width="6"
       patternUnits="userSpaceOnUse"
       id="EMFhbasepattern-6" />
    <pattern
       y="0"
       x="0"
       height="6"
       width="6"
       patternUnits="userSpaceOnUse"
       id="EMFhbasepattern-5" />
    <pattern
       y="0"
       x="0"
       height="6"
       width="6"
       patternUnits="userSpaceOnUse"
       id="EMFhbasepattern-7" />
    <pattern
       y="0"
       x="0"
       height="6"
       width="6"
       patternUnits="userSpaceOnUse"
       id="EMFhbasepattern-76" />
    <pattern
       y="0"
       x="0"
       height="6"
       width="6"
       patternUnits="userSpaceOnUse"
       id="EMFhbasepattern-59" />
  </defs>
  <sodipodi:namedview
     id="base"
     pagecolor="#ffffff"
     bordercolor="#666666"
     borderopacity="1.0"
     inkscape:pageopacity="0"
     inkscape:pageshadow="2"
     inkscape:zoom="0.7"
     inkscape:cx="462.55336"
     inkscape:cy="361.452"
     inkscape:document-units="mm"
     inkscape:current-layer="layer1"
     showgrid="false"
     inkscape:window-width="1920"
     inkscape:window-height="1017"
     inkscape:window-x="-8"
     inkscape:window-y="-8"
     inkscape:window-maximized="1"
     inkscape:pagecheckerboard="false" />
  <metadata
     id="metadata5">
    <rdf:RDF>
      <cc:Work
         rdf:about="">
        <dc:format>image/svg+xml</dc:format>
        <dc:type
           rdf:resource="http://purl.org/dc/dcmitype/StillImage" />
        <dc:title />
      </cc:Work>
    </rdf:RDF>
  </metadata>
  <g
     inkscape:label="Capa 1"
     inkscape:groupmode="layer"
     id="layer1"
     transform="translate(0,-87)">
    <text
       xml:space="preserve"
       style="font-style:normal;font-variant:normal;font-weight:700;font-size:2.26052952px;line-height:229.95896339%;font-family:Arial;text-align:start;letter-spacing:0px;word-spacing:0px;text-anchor:start;fill:#000000;fill-opacity:1;stroke:none;stroke-width:0.14128309"
       x="11.170027"
       y="106.87511"
       id="text1754"><tspan
         style="font-size:3.17499995px;stroke-width:0.14128309"
         sodipodi:role="line"
         x="11.170027"
         y="110.0976"
         id="tspan1752" /></text>
    <flowRoot
       xml:space="preserve"
       id="flowRoot1757"
       style="font-style:normal;font-variant:normal;font-weight:bold;font-stretch:normal;font-size:12px;line-height:1.25;font-family:'Times New Roman';-inkscape-font-specification:'Times New Roman, Bold';font-variant-ligatures:normal;font-variant-caps:normal;font-variant-numeric:normal;font-feature-settings:normal;text-align:center;writing-mode:lr-tb;text-anchor:middle;opacity:1;fill:#cccccc;fill-opacity:1;stroke:none;stroke-width:0.5669291;stroke-linecap:square;stroke-linejoin:miter;stroke-miterlimit:4;stroke-dasharray:2.26771654, 0.56692913;stroke-dashoffset:0;stroke-opacity:1;paint-order:normal"
       transform="matrix(0.26458333,0,0,0.26458333,0,87)"><flowRegion
         id="flowRegion1759"><rect
           id="rect1761"
           width="20.708128"
           height="18.182745"
           x="14.89975"
           y="48.965824" /></flowRegion><flowPara
         id="flowPara1763" /></flowRoot>    <flowRoot
       xml:space="preserve"
       id="flowRoot1769"
       style="font-style:normal;font-variant:normal;font-weight:bold;font-stretch:normal;font-size:12px;line-height:1.25;font-family:'Times New Roman';-inkscape-font-specification:'Times New Roman, Bold';font-variant-ligatures:normal;font-variant-caps:normal;font-variant-numeric:normal;font-feature-settings:normal;text-align:center;writing-mode:lr-tb;text-anchor:middle;opacity:1;fill:#cccccc;fill-opacity:1;stroke:none;stroke-width:0.5669291;stroke-linecap:square;stroke-linejoin:miter;stroke-miterlimit:4;stroke-dasharray:2.26771654, 0.56692913;stroke-dashoffset:0;stroke-opacity:1;paint-order:normal"
       transform="matrix(0.26458333,0,0,0.26458333,0,87)"><flowRegion
         id="flowRegion1771"><rect
           id="rect1773"
           width="95.459419"
           height="42.426407"
           x="-38.890873"
           y="-34.119225" /></flowRegion><flowPara
         id="flowPara1775" /></flowRoot>    <rect
       ry="5.0353222"
       rx="0"
       y="97.769272"
       x="8.4342384"
       height="62.832058"
       width="90"
       id="rect1060"
       style="opacity:1;fill:#ffdba5;fill-opacity:1;stroke:none;stroke-width:1.52460456;stroke-linecap:square;stroke-linejoin:miter;stroke-miterlimit:4;stroke-dasharray:none;stroke-dashoffset:0;stroke-opacity:1;paint-order:normal" />
    <text
       xml:space="preserve"
       style="font-style:normal;font-variant:normal;font-weight:700;font-size:3.57720685px;line-height:125%;font-family:Arial;text-align:start;letter-spacing:0px;word-spacing:0px;text-anchor:start;fill:#000000;fill-opacity:1;stroke:none;stroke-width:0.13404053"
       x="40.933228"
       y="103.6489"
       id="text1720"><tspan
         style="stroke-width:0.13404053"
         sodipodi:role="line"
         x="40.933228"
         y="103.6489"
         id="tspan1718"><tspan
           dx="0 0 0 0 0 0 0 0 0"
           dy="0 0 0 0 0 0 0 0 0"
           style="font-style:normal;font-variant:normal;font-weight:700;font-size:3.57720685px;font-family:Arial;fill:#000000;stroke-width:0.13404053"
           id="tspan1714">SESIÓN 1 (3h.)</tspan></tspan></text>
    <text
       id="text1714"
       y="109.41289"
       x="14.758424"
       style="font-style:normal;font-variant:normal;font-weight:700;font-size:2.14464855px;line-height:229.95896339%;font-family:Arial;text-align:start;letter-spacing:0px;word-spacing:0px;text-anchor:start;fill:#000000;fill-opacity:1;stroke:none;stroke-width:0.13404053"
       xml:space="preserve"><tspan
         y="109.41289"
         x="14.758424"
         sodipodi:role="line"
         style="font-size:3.01224089px;stroke-width:0.13404053"
         id="tspan1729">Explicación del proyecto lúdico: &quot;Redes de Juego Local&quot;</tspan><tspan
         y="114.62653"
         x="14.758424"
         sodipodi:role="line"
         style="font-size:3.01224089px;stroke-width:0.13404053"
         id="tspan1767"> Agrupamientos</tspan><tspan
         y="119.84019"
         x="14.758424"
         sodipodi:role="line"
         style="font-size:3.01224089px;stroke-width:0.13404053"
         id="tspan1731"> Requerimientos del juego</tspan><tspan
         y="125.05383"
         x="14.758424"
         sodipodi:role="line"
         style="font-size:3.01224089px;stroke-width:0.13404053"
         id="tspan1819"> Brainstorming</tspan><tspan
         y="130.26749"
         x="14.758424"
         sodipodi:role="line"
         style="font-size:3.01224089px;stroke-width:0.13404053"
         id="tspan1750"> Presentación de materiales</tspan><tspan
         y="135.48112"
         x="14.758424"
         sodipodi:role="line"
         style="font-size:3.01224089px;stroke-width:0.13404053"
         id="tspan1753"> Software a utilizar</tspan><tspan
         y="140.69478"
         x="14.758424"
         sodipodi:role="line"
         style="font-size:3.01224089px;stroke-width:0.13404053"
         id="tspan1755"> Foro de debate</tspan><tspan
         y="145.86583"
         x="14.758424"
         sodipodi:role="line"
         style="font-size:3.01224089px;stroke-width:0.13404053"
         id="tspan1765">Actividad de docencia directa (exposición teórica)</tspan><tspan
         y="151.07948"
         x="14.758424"
         sodipodi:role="line"
         style="font-size:3.01224089px;stroke-width:0.13404053"
         id="tspan1777"> Bloque 1: Caracterízación de redes</tspan><tspan
         y="156.29314"
         x="14.758424"
         sodipodi:role="line"
         style="font-size:3.01224089px;stroke-width:0.13404053"
         id="tspan1779"> Bloque 4: Interconexión de equipos en redes locales</tspan><tspan
         y="161.22495"
         x="14.758424"
         sodipodi:role="line"
         style="font-size:3.01224089px;stroke-width:0.13404053"
         id="tspan1733" /></text>
    <rect
       style="opacity:1;fill:#b9d3eb;fill-opacity:1;stroke:none;stroke-width:1.07542539;stroke-linecap:square;stroke-linejoin:miter;stroke-miterlimit:4;stroke-dasharray:none;stroke-dashoffset:0;stroke-opacity:1;paint-order:normal"
       id="rect1821"
       width="90"
       height="31.26277"
       x="8.4342384"
       y="169.65135"
       rx="0"
       ry="2.5053792" />
    <text
       id="text1827"
       y="175.53098"
       x="40.933228"
       style="font-style:normal;font-variant:normal;font-weight:700;font-size:3.57720685px;line-height:125%;font-family:Arial;text-align:start;letter-spacing:0px;word-spacing:0px;text-anchor:start;fill:#000000;fill-opacity:1;stroke:none;stroke-width:0.13404053"
       xml:space="preserve"><tspan
         id="tspan1825"
         y="175.53098"
         x="40.933228"
         sodipodi:role="line"
         style="stroke-width:0.13404053"><tspan
           id="tspan1823"
           style="font-style:normal;font-variant:normal;font-weight:700;font-size:3.57720685px;font-family:Arial;fill:#000000;stroke-width:0.13404053"
           dy="0 0 0 0 0 0 0 0 0"
           dx="0 0 0 0 0 0 0 0 0">SESIÓN 2 (2h.)</tspan></tspan></text>
    <text
       xml:space="preserve"
       style="font-style:normal;font-variant:normal;font-weight:700;font-size:2.14464855px;line-height:229.95896339%;font-family:Arial;text-align:start;letter-spacing:0px;word-spacing:0px;text-anchor:start;fill:#000000;fill-opacity:1;stroke:none;stroke-width:0.13404053"
       x="14.758424"
       y="181.29495"
       id="text1851"><tspan
         id="tspan1843"
         style="font-size:3.01224089px;stroke-width:0.13404053"
         sodipodi:role="line"
         x="14.758424"
         y="181.29495">Actividad de docencia directa (exposición teórica)</tspan><tspan
         id="tspan1845"
         style="font-size:3.01224089px;stroke-width:0.13404053"
         sodipodi:role="line"
         x="14.758424"
         y="186.50861"> Bloque 5: Instalación y configuración de equipos</tspan><tspan
         style="font-size:3.01224089px;stroke-width:0.13404053"
         sodipodi:role="line"
         x="14.758424"
         y="191.67966"
         id="tspan1952">Actividades 1, 2 y 3: Elaboración de 10 preguntas de</tspan><tspan
         style="font-size:3.01224089px;stroke-width:0.13404053"
         sodipodi:role="line"
         x="14.758424"
         y="196.85071"
         id="tspan1954">cada capa en formato AIKEN (refuerzo/ ampliación)</tspan></text>
    <path
       sodipodi:nodetypes="ssccccsscccscssssccc"
       inkscape:connector-curvature="0"
       id="path2742"
       d="m 11.496451,191.49403 c 0.01123,-0.13478 0.06611,-0.29114 0.140533,-0.40047 0.04234,-0.0621 0.146881,-0.16844 0.210821,-0.21426 0.07021,-0.0503 0.188606,-0.10584 0.277789,-0.13029 0.100335,-0.0275 0.316148,-0.0275 0.416485,0 0.08918,0.0245 0.207579,0.08 0.277789,0.13029 0.06394,0.0458 0.168483,0.15207 0.210821,0.21426 0.07442,0.10933 0.129292,0.26569 0.140533,0.40047 l 0.0059,0.0706 h -0.843291 -0.843279 z m 0.712597,-0.92268 c -0.225885,-0.0592 -0.38212,-0.27753 -0.364257,-0.50918 0.01349,-0.17483 0.120506,-0.33171 0.276935,-0.40594 0.143125,-0.0679 0.281087,-0.0679 0.424212,0 0.301996,0.1433 0.372512,0.54422 0.137454,0.78147 -0.07158,0.0722 -0.137444,0.11083 -0.229334,0.13432 -0.08631,0.0221 -0.15887,0.0219 -0.24501,-5e-4 z"
       style="fill:#000000;fill-opacity:1;stroke-width:0.00894367" />
    <rect
       ry="2.5053792"
       rx="0"
       y="209.96414"
       x="8.4342384"
       height="31.26277"
       width="90"
       id="rect2768"
       style="opacity:1;fill:#ffa5a5;fill-opacity:1;stroke:none;stroke-width:1.07542539;stroke-linecap:square;stroke-linejoin:miter;stroke-miterlimit:4;stroke-dasharray:none;stroke-dashoffset:0;stroke-opacity:1;paint-order:normal" />
    <text
       xml:space="preserve"
       style="font-style:normal;font-variant:normal;font-weight:700;font-size:3.57720685px;line-height:125%;font-family:Arial;text-align:start;letter-spacing:0px;word-spacing:0px;text-anchor:start;fill:#000000;fill-opacity:1;stroke:none;stroke-width:0.13404053"
       x="40.933228"
       y="215.84378"
       id="text2750"><tspan
         style="stroke-width:0.13404053"
         sodipodi:role="line"
         x="40.933228"
         y="215.84378"
         id="tspan2748"><tspan
           dx="0 0 0 0 0 0 0 0 0"
           dy="0 0 0 0 0 0 0 0 0"
           style="font-style:normal;font-variant:normal;font-weight:700;font-size:3.57720685px;font-family:Arial;fill:#000000;stroke-width:0.13404053"
           id="tspan2746">SESIÓN 3 (2h.)</tspan></tspan></text>
    <text
       id="text2762"
       y="221.60774"
       x="14.758424"
       style="font-style:normal;font-variant:normal;font-weight:700;font-size:2.14464855px;line-height:229.95896339%;font-family:Arial;text-align:start;letter-spacing:0px;word-spacing:0px;text-anchor:start;fill:#000000;fill-opacity:1;stroke:none;stroke-width:0.13404053"
       xml:space="preserve"><tspan
         y="221.60774"
         x="14.758424"
         sodipodi:role="line"
         style="font-size:3.01224089px;stroke-width:0.13404053"
         id="tspan2752">Actividad de docencia directa (exposición teórica)</tspan><tspan
         y="226.8214"
         x="14.758424"
         sodipodi:role="line"
         style="font-size:3.01224089px;stroke-width:0.13404053"
         id="tspan2756"> Bloque 7: PRL y protección ambiental</tspan><tspan
         id="tspan2758"
         y="231.99245"
         x="14.758424"
         sodipodi:role="line"
         style="font-size:3.01224089px;stroke-width:0.13404053">Actividades 3, 4 y 5: Elaboración de 10 preguntas de</tspan><tspan
         id="tspan2760"
         y="237.1635"
         x="14.758424"
         sodipodi:role="line"
         style="font-size:3.01224089px;stroke-width:0.13404053">cada capa en formato AIKEN (refuerzo/ ampliación)</tspan></text>
    <path
       style="fill:#000000;fill-opacity:1;stroke-width:0.00894367"
       d="m 11.496451,231.74795 c 0.01123,-0.13477 0.06611,-0.29113 0.140533,-0.40045 0.04234,-0.0621 0.146881,-0.16845 0.210821,-0.21426 0.07021,-0.0503 0.188606,-0.10585 0.277789,-0.13029 0.100335,-0.0275 0.316148,-0.0275 0.416485,0 0.08918,0.0244 0.207579,0.08 0.277789,0.13029 0.06394,0.0458 0.168483,0.15206 0.210821,0.21426 0.07442,0.10932 0.129292,0.26568 0.140533,0.40045 l 0.0059,0.0707 h -0.843291 -0.843279 z m 0.712597,-0.92267 c -0.225885,-0.0592 -0.38212,-0.27753 -0.364257,-0.50917 0.01349,-0.17483 0.120506,-0.33172 0.276935,-0.40596 0.143125,-0.0679 0.281087,-0.0679 0.424212,0 0.301996,0.14332 0.372512,0.54424 0.137454,0.78148 -0.07158,0.0722 -0.137444,0.11083 -0.229334,0.13433 -0.08631,0.0221 -0.15887,0.0219 -0.24501,-5e-4 z"
       id="path2770"
       inkscape:connector-curvature="0"
       sodipodi:nodetypes="ssccccsscccscssssccc" />
    <rect
       style="opacity:1;fill:#a5ffd5;fill-opacity:1;stroke:none;stroke-width:1.15329111;stroke-linecap:square;stroke-linejoin:miter;stroke-miterlimit:4;stroke-dasharray:none;stroke-dashoffset:0;stroke-opacity:1;paint-order:normal"
       id="rect2795"
       width="90"
       height="35.953785"
       x="8.4342384"
       y="250.27695"
       rx="0"
       ry="2.8813145" />
    <text
       id="text2801"
       y="256.15656"
       x="40.933228"
       style="font-style:normal;font-variant:normal;font-weight:700;font-size:3.57720685px;line-height:125%;font-family:Arial;text-align:start;letter-spacing:0px;word-spacing:0px;text-anchor:start;fill:#000000;fill-opacity:1;stroke:none;stroke-width:0.13404053"
       xml:space="preserve"><tspan
         id="tspan2799"
         y="256.15656"
         x="40.933228"
         sodipodi:role="line"
         style="stroke-width:0.13404053"><tspan
           id="tspan2797"
           style="font-style:normal;font-variant:normal;font-weight:700;font-size:3.57720685px;font-family:Arial;fill:#000000;stroke-width:0.13404053"
           dy="0 0 0 0 0 0 0 0 0"
           dx="0 0 0 0 0 0 0 0 0">SESIÓN 4 (3h.)</tspan></tspan></text>
    <text
       xml:space="preserve"
       style="font-style:normal;font-variant:normal;font-weight:700;font-size:2.14464855px;line-height:229.95896339%;font-family:Arial;text-align:start;letter-spacing:0px;word-spacing:0px;text-anchor:start;fill:#000000;fill-opacity:1;stroke:none;stroke-width:0.13404053"
       x="14.758424"
       y="261.92053"
       id="text2811"><tspan
         id="tspan2803"
         style="font-size:3.01224089px;stroke-width:0.13404053"
         sodipodi:role="line"
         x="14.758424"
         y="261.92053">Actividad de diseño e impresión:</tspan><tspan
         id="tspan2805"
         style="font-size:3.01224089px;stroke-width:0.13404053"
         sodipodi:role="line"
         x="14.758424"
         y="267.13419"> Corregir errores en preguntas</tspan><tspan
         style="font-size:3.01224089px;stroke-width:0.13404053"
         sodipodi:role="line"
         x="14.758424"
         y="272.34784"
         id="tspan2813"> Imprimir tarjetas, comodines, ruletas, tokens, etc</tspan><tspan
         style="font-size:3.01224089px;stroke-width:0.13404053"
         sodipodi:role="line"
         x="14.758424"
         y="277.51889"
         id="tspan2807">Actividad 7: Elaboración de las reglas del juego y sus</tspan><tspan
         style="font-size:3.01224089px;stroke-width:0.13404053"
         sodipodi:role="line"
         x="14.758424"
         y="282.68994"
         id="tspan2809">mecánicas</tspan></text>
    <path
       style="fill:#000000;fill-opacity:1;stroke-width:0.00894367"
       d="m 9.8185921,261.75101 c -0.01424,-0.0936 0.02652,-0.27755 0.08372,-0.37787 0.1362099,-0.23889 0.4077409,-0.37633 0.6718169,-0.34005 0.06595,0.009 0.224684,0.0576 0.224684,0.0686 0,0.003 -0.02232,0.0318 -0.04962,0.0655 -0.133162,0.16482 -0.210939,0.35448 -0.224739,0.54805 l -0.0055,0.0783 H 10.172037 9.8251221 Z m 0.8404429,-0.0282 c 0.01123,-0.13479 0.06611,-0.29114 0.140533,-0.40046 0.04234,-0.0622 0.146881,-0.16844 0.210822,-0.21427 0.07021,-0.0503 0.188607,-0.10584 0.277789,-0.13029 0.100336,-0.0275 0.316148,-0.0275 0.416486,0 0.08918,0.0244 0.207578,0.08 0.277788,0.13029 0.06394,0.0458 0.168483,0.15208 0.210821,0.21427 0.07442,0.10932 0.129293,0.26567 0.140533,0.40046 l 0.0059,0.0706 h -0.843291 -0.843279 z m 1.812247,0.0271 c 0,-0.0632 -0.0227,-0.18351 -0.05006,-0.26542 -0.04062,-0.12159 -0.08531,-0.20088 -0.180305,-0.31994 -0.02676,-0.0335 -0.04725,-0.0619 -0.04554,-0.0633 0.0016,-6.5e-4 0.02324,-0.0107 0.04783,-0.021 0.177056,-0.074 0.379504,-0.068 0.556597,0.0165 0.111233,0.0531 0.225234,0.16142 0.290715,0.27625 0.05721,0.10032 0.09795,0.28426 0.08372,0.37787 l -0.0065,0.0424 h -0.34825 -0.348255 z m -0.01789,-0.79855 c -0.197478,-0.0211 -0.342956,-0.16821 -0.370815,-0.37527 -0.02111,-0.15703 0.08182,-0.34193 0.230894,-0.4147 0.170799,-0.0834 0.351942,-0.0536 0.485256,0.0797 0.194523,0.19452 0.157572,0.50544 -0.07772,0.65397 -0.07521,0.0474 -0.167665,0.067 -0.267615,0.0564 z m -2.09282,-0.0154 c -0.194844,-0.0625 -0.317789,-0.26181 -0.286065,-0.46349 0.0357,-0.22691 0.253441,-0.38836 0.475763,-0.35275 0.295101,0.0473 0.451678,0.36914 0.304637,0.62618 -0.05049,0.0882 -0.132433,0.1544 -0.233466,0.18843 -0.07006,0.0236 -0.190146,0.0244 -0.260869,9.5e-4 z m 1.011063,-0.13581 c -0.225886,-0.0592 -0.382121,-0.27754 -0.364258,-0.50919 0.01349,-0.17484 0.120507,-0.33171 0.276935,-0.40594 0.143125,-0.0679 0.281087,-0.0679 0.424213,0 0.301995,0.1433 0.372511,0.54422 0.137453,0.78147 -0.07158,0.0723 -0.137444,0.11083 -0.229333,0.13433 -0.08631,0.0221 -0.158871,0.0218 -0.24501,-5e-4 z"
       id="path1849"
       inkscape:connector-curvature="0"
       sodipodi:nodetypes="scsscccccsssccccsscccssssccccscccsssscsscsssscccssssccc" />
    <path
       sodipodi:nodetypes="scsscccccsssccccsscccssssccccscccsssscsscsssscccssssccc"
       inkscape:connector-curvature="0"
       id="path2819"
       d="m 9.8185921,277.36664 c -0.01424,-0.0936 0.02652,-0.27754 0.08372,-0.37786 0.1362099,-0.23889 0.4077409,-0.37634 0.6718169,-0.34005 0.06595,0.009 0.224684,0.0575 0.224684,0.0686 0,0.003 -0.02232,0.0318 -0.04962,0.0655 -0.133162,0.16481 -0.210939,0.35448 -0.224739,0.54805 l -0.0055,0.0783 H 10.172037 9.8251221 Z m 0.8404429,-0.0282 c 0.01123,-0.13479 0.06611,-0.29114 0.140533,-0.40046 0.04234,-0.0621 0.146881,-0.16845 0.210822,-0.21427 0.07021,-0.0503 0.188607,-0.10584 0.277789,-0.13029 0.100336,-0.0275 0.316148,-0.0275 0.416486,0 0.08918,0.0245 0.207578,0.08 0.277788,0.13029 0.06394,0.0458 0.168483,0.15207 0.210821,0.21427 0.07442,0.10932 0.129293,0.26567 0.140533,0.40046 l 0.0059,0.0707 h -0.843291 -0.843279 z m 1.812247,0.0271 c 0,-0.0632 -0.0227,-0.18351 -0.05006,-0.26542 -0.04062,-0.12158 -0.08531,-0.20088 -0.180305,-0.31994 -0.02676,-0.0335 -0.04725,-0.0619 -0.04554,-0.0633 0.0016,-6.6e-4 0.02324,-0.0107 0.04783,-0.021 0.177056,-0.074 0.379504,-0.068 0.556597,0.0165 0.111233,0.0531 0.225234,0.16142 0.290715,0.27625 0.05721,0.10032 0.09795,0.28425 0.08372,0.37787 l -0.0065,0.0424 h -0.34825 -0.348255 z m -0.01789,-0.79855 c -0.197478,-0.0211 -0.342956,-0.16821 -0.370815,-0.37527 -0.02111,-0.15703 0.08182,-0.34193 0.230894,-0.4147 0.170799,-0.0834 0.351942,-0.0536 0.485256,0.0797 0.194523,0.19451 0.157572,0.50544 -0.07772,0.65398 -0.07521,0.0474 -0.167665,0.067 -0.267615,0.0564 z m -2.09282,-0.0154 c -0.194844,-0.0626 -0.317789,-0.26181 -0.286065,-0.46349 0.0357,-0.22692 0.253441,-0.38836 0.475763,-0.35274 0.295101,0.0472 0.451678,0.36913 0.304637,0.62618 -0.05049,0.0882 -0.132433,0.15439 -0.233466,0.18842 -0.07006,0.0236 -0.190146,0.0244 -0.260869,9.4e-4 z m 1.011063,-0.13581 c -0.225886,-0.0592 -0.382121,-0.27755 -0.364258,-0.50919 0.01349,-0.17483 0.120507,-0.33171 0.276935,-0.40595 0.143125,-0.0679 0.281087,-0.0679 0.424213,0 0.301995,0.14331 0.372511,0.54424 0.137453,0.78148 -0.07158,0.0722 -0.137444,0.11083 -0.229333,0.13433 -0.08631,0.0221 -0.158871,0.0218 -0.24501,-5e-4 z"
       style="fill:#000000;fill-opacity:1;stroke-width:0.00894367" />
    <rect
       style="opacity:1;fill:#ebc3b9;fill-opacity:1;stroke:none;stroke-width:1.23123085;stroke-linecap:square;stroke-linejoin:miter;stroke-miterlimit:4;stroke-dasharray:none;stroke-dashoffset:0;stroke-opacity:1;paint-order:normal"
       id="rect3144"
       width="90"
       height="40.977539"
       x="103.5"
       y="148.26692"
       rx="0"
       ry="3.2839146" />
    <text
       id="text3150"
       y="156.04845"
       x="135.99892"
       style="font-style:normal;font-variant:normal;font-weight:700;font-size:3.57720685px;line-height:125%;font-family:Arial;text-align:start;letter-spacing:0px;word-spacing:0px;text-anchor:start;fill:#000000;fill-opacity:1;stroke:none;stroke-width:0.13404053"
       xml:space="preserve"><tspan
         id="tspan3148"
         y="156.04845"
         x="135.99892"
         sodipodi:role="line"
         style="stroke-width:0.13404053"><tspan
           id="tspan3146"
           style="font-style:normal;font-variant:normal;font-weight:700;font-size:3.57720685px;font-family:Arial;fill:#000000;stroke-width:0.13404053"
           dy="0 0 0 0 0 0 0 0 0"
           dx="0 0 0 0 0 0 0 0 0">SESIÓN 6 (2h.)</tspan></tspan></text>
    <text
       xml:space="preserve"
       style="font-style:normal;font-variant:normal;font-weight:700;font-size:2.14464855px;line-height:229.95896339%;font-family:Arial;text-align:start;letter-spacing:0px;word-spacing:0px;text-anchor:start;fill:#000000;fill-opacity:1;stroke:none;stroke-width:0.13404053"
       x="109.82415"
       y="161.81242"
       id="text3158"><tspan
         style="font-size:3.01224089px;stroke-width:0.13404053"
         sodipodi:role="line"
         x="109.82415"
         y="161.81242"
         id="tspan3156">Actividad 9: Creación de minijuegos (ampliación)</tspan><tspan
         style="font-size:3.01224089px;stroke-width:0.13404053"
         sodipodi:role="line"
         x="109.82415"
         y="167.02608"
         id="tspan3211"> El alumnado que lo desee podrá empezar en esta</tspan><tspan
         style="font-size:3.01224089px;stroke-width:0.13404053"
         sodipodi:role="line"
         x="109.82415"
         y="172.19713"
         id="tspan3213">sesión la actividad 10 </tspan><tspan
         style="font-size:3.01224089px;stroke-width:0.13404053"
         sodipodi:role="line"
         x="109.82415"
         y="177.12894"
         id="tspan3209" /></text>
    <path
       sodipodi:nodetypes="ssccccsscccscssssccc"
       inkscape:connector-curvature="0"
       id="path3160"
       d="m 106.56224,161.5274 c 0.0112,-0.13478 0.0661,-0.29114 0.14053,-0.40047 0.0423,-0.0621 0.14688,-0.16844 0.21082,-0.21426 0.0702,-0.0503 0.18861,-0.10584 0.27779,-0.13029 0.10034,-0.0275 0.31615,-0.0275 0.41649,0 0.0892,0.0245 0.20757,0.08 0.27778,0.13029 0.0639,0.0458 0.16849,0.15207 0.21083,0.21426 0.0744,0.10933 0.12929,0.26569 0.14053,0.40047 l 0.006,0.0706 h -0.84329 -0.84328 z m 0.71259,-0.92268 c -0.22588,-0.0592 -0.38212,-0.27753 -0.36425,-0.50918 0.0135,-0.17483 0.1205,-0.33171 0.27693,-0.40594 0.14313,-0.0679 0.28109,-0.0679 0.42421,0 0.302,0.1433 0.37252,0.54422 0.13746,0.78147 -0.0716,0.0722 -0.13745,0.11083 -0.22934,0.13432 -0.0863,0.0221 -0.15887,0.0219 -0.24501,-5e-4 z"
       style="fill:#000000;fill-opacity:1;stroke-width:0.00894367" />
    <rect
       ry="3.2624958"
       rx="0"
       y="198.76459"
       x="103.5"
       height="40.710266"
       width="90"
       id="rect3170"
       style="opacity:1;fill:#caebb9;fill-opacity:1;stroke:none;stroke-width:1.22720897;stroke-linecap:square;stroke-linejoin:miter;stroke-miterlimit:4;stroke-dasharray:none;stroke-dashoffset:0;stroke-opacity:1;paint-order:normal" />
    <text
       xml:space="preserve"
       style="font-style:normal;font-variant:normal;font-weight:700;font-size:3.57720685px;line-height:125%;font-family:Arial;text-align:start;letter-spacing:0px;word-spacing:0px;text-anchor:start;fill:#000000;fill-opacity:1;stroke:none;stroke-width:0.13404053"
       x="135.99892"
       y="205.90895"
       id="text3176"><tspan
         style="stroke-width:0.13404053"
         sodipodi:role="line"
         x="135.99892"
         y="205.90895"
         id="tspan3174"><tspan
           dx="0 0 0 0 0 0 0 0 0"
           dy="0 0 0 0 0 0 0 0 0"
           style="font-style:normal;font-variant:normal;font-weight:700;font-size:3.57720685px;font-family:Arial;fill:#000000;stroke-width:0.13404053"
           id="tspan3172">SESIÓN 7 (3h.)</tspan></tspan></text>
    <text
       id="text3180"
       y="211.67293"
       x="109.82415"
       style="font-style:normal;font-variant:normal;font-weight:700;font-size:2.14464855px;line-height:229.95896339%;font-family:Arial;text-align:start;letter-spacing:0px;word-spacing:0px;text-anchor:start;fill:#000000;fill-opacity:1;stroke:none;stroke-width:0.13404053"
       xml:space="preserve"><tspan
         id="tspan3178"
         y="211.67293"
         x="109.82415"
         sodipodi:role="line"
         style="font-size:3.01224089px;stroke-width:0.13404053">Actividad 10: Memoria individual del proyecto:</tspan><tspan
         y="216.88658"
         x="109.82415"
         sodipodi:role="line"
         style="font-size:3.01224089px;stroke-width:0.13404053"
         id="tspan3201"> Trabajo individual</tspan><tspan
         y="222.10022"
         x="109.82415"
         sodipodi:role="line"
         style="font-size:3.01224089px;stroke-width:0.13404053"
         id="tspan3207"> Trabajo colectivo</tspan></text>
    <path
       style="fill:#000000;fill-opacity:1;stroke-width:0.00894367"
       d="m 106.56224,211.53707 c 0.0112,-0.13478 0.0661,-0.29114 0.14053,-0.40047 0.0423,-0.0621 0.14688,-0.16844 0.21082,-0.21426 0.0702,-0.0503 0.18861,-0.10584 0.27779,-0.13029 0.10034,-0.0275 0.31615,-0.0275 0.41649,0 0.0892,0.0245 0.20757,0.08 0.27778,0.13029 0.0639,0.0458 0.16849,0.15207 0.21083,0.21426 0.0744,0.10933 0.12929,0.26569 0.14053,0.40047 l 0.006,0.0706 h -0.84329 -0.84328 z m 0.71259,-0.92268 c -0.22588,-0.0592 -0.38212,-0.27753 -0.36425,-0.50918 0.0135,-0.17483 0.1205,-0.33171 0.27693,-0.40594 0.14313,-0.0679 0.28109,-0.0679 0.42421,0 0.302,0.1433 0.37252,0.54422 0.13746,0.78147 -0.0716,0.0722 -0.13745,0.11083 -0.22934,0.13432 -0.0863,0.0221 -0.15887,0.0219 -0.24501,-5e-4 z"
       id="path3182"
       inkscape:connector-curvature="0"
       sodipodi:nodetypes="ssccccsscccscssssccc" />
    <rect
       ry="3.4766841"
       rx="0"
       y="97.769272"
       x="103.5"
       height="43.382961"
       width="90"
       id="rect3108"
       style="opacity:1;fill:#ebb9e4;fill-opacity:1;stroke:none;stroke-width:1.26685274;stroke-linecap:square;stroke-linejoin:miter;stroke-miterlimit:4;stroke-dasharray:none;stroke-dashoffset:0;stroke-opacity:1;paint-order:normal" />
    <text
       xml:space="preserve"
       style="font-style:normal;font-variant:normal;font-weight:700;font-size:3.57720685px;line-height:125%;font-family:Arial;text-align:start;letter-spacing:0px;word-spacing:0px;text-anchor:start;fill:#000000;fill-opacity:1;stroke:none;stroke-width:0.13404053"
       x="135.99892"
       y="103.64889"
       id="text3114"><tspan
         style="stroke-width:0.13404053"
         sodipodi:role="line"
         x="135.99892"
         y="103.64889"
         id="tspan3112"><tspan
           dx="0 0 0 0 0 0 0 0 0"
           dy="0 0 0 0 0 0 0 0 0"
           style="font-style:normal;font-variant:normal;font-weight:700;font-size:3.57720685px;font-family:Arial;fill:#000000;stroke-width:0.13404053"
           id="tspan3110">SESIÓN 5 (2h.)</tspan></tspan></text>
    <text
       id="text3124"
       y="109.41286"
       x="109.82415"
       style="font-style:normal;font-variant:normal;font-weight:700;font-size:2.14464855px;line-height:229.95896339%;font-family:Arial;text-align:start;letter-spacing:0px;word-spacing:0px;text-anchor:start;fill:#000000;fill-opacity:1;stroke:none;stroke-width:0.13404053"
       xml:space="preserve"><tspan
         y="109.41286"
         x="109.82415"
         sodipodi:role="line"
         style="font-size:3.01224089px;stroke-width:0.13404053"
         id="tspan3118">Elaboración del tablero y el material</tspan><tspan
         y="114.34467"
         x="109.82415"
         sodipodi:role="line"
         style="font-size:3.01224089px;stroke-width:0.13404053"
         id="tspan3199" /><tspan
         id="tspan3122"
         y="119.51572"
         x="109.82415"
         sodipodi:role="line"
         style="font-size:3.01224089px;stroke-width:0.13404053">Actividad 8: Autoevaluaciones, en formato texto o video</tspan></text>
    <path
       style="fill:#000000;fill-opacity:1;stroke-width:0.00894367"
       d="m 106.56224,119.26662 c 0.0112,-0.13478 0.0661,-0.29114 0.14053,-0.40047 0.0423,-0.0621 0.14688,-0.16844 0.21082,-0.21426 0.0702,-0.0503 0.18861,-0.10584 0.27779,-0.13029 0.10034,-0.0275 0.31615,-0.0275 0.41649,0 0.0892,0.0245 0.20757,0.08 0.27778,0.13029 0.0639,0.0458 0.16849,0.15207 0.21083,0.21426 0.0744,0.10933 0.12929,0.26569 0.14053,0.40047 l 0.006,0.0706 h -0.84329 -0.84328 z m 0.71259,-0.92268 c -0.22588,-0.0592 -0.38212,-0.27753 -0.36425,-0.50918 0.0135,-0.17483 0.1205,-0.33171 0.27693,-0.40594 0.14313,-0.0679 0.28109,-0.0679 0.42421,0 0.302,0.1433 0.37252,0.54422 0.13746,0.78147 -0.0716,0.0722 -0.13745,0.11083 -0.22934,0.13432 -0.0863,0.0221 -0.15887,0.0219 -0.24501,-5e-4 z"
       id="path3126"
       inkscape:connector-curvature="0"
       sodipodi:nodetypes="ssccccsscccscssssccc" />
    <path
       sodipodi:nodetypes="scsscccccsssccccsscccssssccccscccsssscsscsssscccssssccc"
       inkscape:connector-curvature="0"
       id="path2819-5"
       d="m 104.88457,109.27072 c -0.0142,-0.0936 0.0265,-0.27754 0.0837,-0.37786 0.13621,-0.23889 0.40774,-0.37634 0.67182,-0.34005 0.0659,0.009 0.22468,0.0575 0.22468,0.0686 0,0.003 -0.0223,0.0318 -0.0496,0.0655 -0.13316,0.16481 -0.21093,0.35448 -0.22473,0.54805 l -0.006,0.0783 h -0.34692 -0.34692 z m 0.84045,-0.0282 c 0.0112,-0.13479 0.0661,-0.29114 0.14053,-0.40046 0.0423,-0.0621 0.14688,-0.16845 0.21082,-0.21427 0.0702,-0.0503 0.18861,-0.10584 0.27779,-0.13029 0.10034,-0.0275 0.31615,-0.0275 0.41649,0 0.0892,0.0245 0.20757,0.08 0.27778,0.13029 0.0639,0.0458 0.16849,0.15207 0.21083,0.21427 0.0744,0.10932 0.12929,0.26567 0.14053,0.40046 l 0.006,0.0707 h -0.84329 -0.84328 z m 1.81224,0.0271 c 0,-0.0632 -0.0227,-0.18351 -0.0501,-0.26542 -0.0406,-0.12158 -0.0853,-0.20088 -0.1803,-0.31994 -0.0268,-0.0335 -0.0472,-0.0619 -0.0455,-0.0633 0.002,-6.6e-4 0.0232,-0.0107 0.0478,-0.021 0.17705,-0.074 0.3795,-0.068 0.5566,0.0165 0.11123,0.0531 0.22523,0.16142 0.29071,0.27625 0.0572,0.10032 0.0979,0.28425 0.0837,0.37787 l -0.006,0.0424 h -0.34825 -0.34825 z m -0.0179,-0.79855 c -0.19747,-0.0211 -0.34295,-0.16821 -0.37081,-0.37527 -0.0211,-0.15703 0.0818,-0.34193 0.23089,-0.4147 0.1708,-0.0834 0.35194,-0.0536 0.48526,0.0797 0.19452,0.19451 0.15757,0.50544 -0.0777,0.65398 -0.0752,0.0474 -0.16767,0.067 -0.26762,0.0564 z m -2.09282,-0.0154 c -0.19484,-0.0626 -0.31779,-0.26181 -0.28606,-0.46349 0.0357,-0.22692 0.25344,-0.38836 0.47576,-0.35274 0.2951,0.0472 0.45168,0.36913 0.30464,0.62618 -0.0505,0.0882 -0.13243,0.15439 -0.23347,0.18842 -0.0701,0.0236 -0.19014,0.0244 -0.26087,9.4e-4 z m 1.01107,-0.13581 c -0.22589,-0.0592 -0.38212,-0.27755 -0.36426,-0.50919 0.0135,-0.17483 0.12051,-0.33171 0.27693,-0.40595 0.14313,-0.0679 0.28109,-0.0679 0.42422,0 0.30199,0.14331 0.37251,0.54424 0.13745,0.78148 -0.0716,0.0722 -0.13744,0.11083 -0.22933,0.13433 -0.0863,0.0221 -0.15887,0.0218 -0.24501,-5e-4 z"
       style="fill:#000000;fill-opacity:1;stroke-width:0.00894367" />
    <rect
       style="opacity:1;fill:#b9e5eb;fill-opacity:1;stroke:none;stroke-width:1.16945207;stroke-linecap:square;stroke-linejoin:miter;stroke-miterlimit:4;stroke-dasharray:none;stroke-dashoffset:0;stroke-opacity:1;paint-order:normal"
       id="rect3215"
       width="90"
       height="36.968494"
       x="103.5"
       y="249.26224"
       rx="0"
       ry="2.9626324" />
    <text
       id="text3221"
       y="256.03674"
       x="135.99892"
       style="font-style:normal;font-variant:normal;font-weight:700;font-size:3.57720685px;line-height:125%;font-family:Arial;text-align:start;letter-spacing:0px;word-spacing:0px;text-anchor:start;fill:#000000;fill-opacity:1;stroke:none;stroke-width:0.13404053"
       xml:space="preserve"><tspan
         id="tspan3219"
         y="256.03674"
         x="135.99892"
         sodipodi:role="line"
         style="stroke-width:0.13404053"><tspan
           id="tspan3217"
           style="font-style:normal;font-variant:normal;font-weight:700;font-size:3.57720685px;font-family:Arial;fill:#000000;stroke-width:0.13404053"
           dy="0 0 0 0 0 0 0 0 0"
           dx="0 0 0 0 0 0 0 0 0">SESIÓN 8 (2h.)</tspan></tspan></text>
    <text
       xml:space="preserve"
       style="font-style:normal;font-variant:normal;font-weight:700;font-size:2.14464855px;line-height:229.95896339%;font-family:Arial;text-align:start;letter-spacing:0px;word-spacing:0px;text-anchor:start;fill:#000000;fill-opacity:1;stroke:none;stroke-width:0.13404053"
       x="109.82415"
       y="261.80072"
       id="text3229"><tspan
         style="font-size:3.01224089px;stroke-width:0.13404053"
         sodipodi:role="line"
         x="109.82415"
         y="261.80072"
         id="tspan3233">Actividad lúdica: jugar a los juegos de producción propia</tspan><tspan
         style="font-size:3.01224089px;stroke-width:0.13404053"
         sodipodi:role="line"
         x="109.82415"
         y="266.97177"
         id="tspan3237">Actividad 11a: rúbrica sobre funcionamiento del juego </tspan><tspan
         id="tspan3227"
         style="font-size:3.01224089px;stroke-width:0.13404053"
         sodipodi:role="line"
         x="109.82415"
         y="272.14282">propio y propuestas de mejora.</tspan></text>
    <path
       style="fill:#000000;fill-opacity:1;stroke-width:0.00894367"
       d="m 104.88456,266.89015 c -0.0142,-0.0936 0.0265,-0.27754 0.0837,-0.37786 0.13622,-0.23889 0.40774,-0.37634 0.67182,-0.34005 0.0659,0.009 0.22468,0.0575 0.22468,0.0686 0,0.003 -0.0223,0.0318 -0.0496,0.0655 -0.13317,0.16481 -0.21094,0.35448 -0.22473,0.54805 l -0.006,0.0783 h -0.34692 -0.34692 z m 0.84045,-0.0282 c 0.0112,-0.13479 0.0661,-0.29114 0.14053,-0.40046 0.0423,-0.0621 0.14688,-0.16845 0.21082,-0.21427 0.0702,-0.0503 0.1886,-0.10584 0.27778,-0.13029 0.10035,-0.0275 0.31615,-0.0275 0.41649,0 0.0892,0.0245 0.20757,0.08 0.27779,0.13029 0.0639,0.0458 0.16849,0.15207 0.21083,0.21427 0.0744,0.10932 0.12929,0.26567 0.14053,0.40046 l 0.006,0.0707 h -0.84329 -0.84328 z m 1.81224,0.0271 c 0,-0.0632 -0.0227,-0.18351 -0.0501,-0.26542 -0.0406,-0.12158 -0.0853,-0.20088 -0.1803,-0.31994 -0.0268,-0.0335 -0.0472,-0.0619 -0.0455,-0.0633 0.002,-6.6e-4 0.0232,-0.0107 0.0478,-0.021 0.17705,-0.074 0.3795,-0.068 0.55661,0.0165 0.11123,0.0531 0.22522,0.16142 0.29071,0.27625 0.0572,0.10032 0.0979,0.28425 0.0837,0.37787 l -0.006,0.0424 h -0.34824 -0.34825 z m -0.0179,-0.79855 c -0.19747,-0.0211 -0.34295,-0.16821 -0.37081,-0.37527 -0.0211,-0.15703 0.0818,-0.34193 0.23089,-0.4147 0.1708,-0.0834 0.35194,-0.0536 0.48526,0.0797 0.19452,0.19451 0.15757,0.50544 -0.0777,0.65398 -0.0752,0.0474 -0.16767,0.067 -0.26762,0.0564 z m -2.09282,-0.0154 c -0.19484,-0.0626 -0.31779,-0.26181 -0.28606,-0.46349 0.0357,-0.22692 0.25343,-0.38836 0.47575,-0.35274 0.29511,0.0472 0.45168,0.36913 0.30465,0.62618 -0.0505,0.0882 -0.13243,0.15439 -0.23347,0.18842 -0.0701,0.0236 -0.19014,0.0244 -0.26087,9.4e-4 z m 1.01107,-0.13581 c -0.22589,-0.0592 -0.38212,-0.27755 -0.36426,-0.50919 0.0135,-0.17483 0.12051,-0.33171 0.27693,-0.40595 0.14313,-0.0679 0.28109,-0.0679 0.42422,0 0.30199,0.14331 0.37251,0.54424 0.13745,0.78148 -0.0716,0.0722 -0.13744,0.11083 -0.22933,0.13433 -0.0863,0.0221 -0.15887,0.0218 -0.24501,-5e-4 z"
       id="path3253"
       inkscape:connector-curvature="0"
       sodipodi:nodetypes="scsscccccsssccccsscccssssccccscccsssscsscsssscccssssccc" />
    <rect
       ry="3.6719782"
       rx="0"
       y="97.769272"
       x="198.5"
       height="45.819893"
       width="90"
       id="rect3257"
       style="opacity:1;fill:#ffa5a5;fill-opacity:1;stroke:none;stroke-width:1.30194795;stroke-linecap:square;stroke-linejoin:miter;stroke-miterlimit:4;stroke-dasharray:none;stroke-dashoffset:0;stroke-opacity:1;paint-order:normal" />
    <text
       xml:space="preserve"
       style="font-style:normal;font-variant:normal;font-weight:700;font-size:3.57720685px;line-height:125%;font-family:Arial;text-align:start;letter-spacing:0px;word-spacing:0px;text-anchor:start;fill:#000000;fill-opacity:1;stroke:none;stroke-width:0.13404053"
       x="230.99893"
       y="103.64886"
       id="text3263"><tspan
         style="stroke-width:0.13404053"
         sodipodi:role="line"
         x="230.99893"
         y="103.64886"
         id="tspan3261"><tspan
           dx="0 0 0 0 0 0 0 0 0"
           dy="0 0 0 0 0 0 0 0 0"
           style="font-style:normal;font-variant:normal;font-weight:700;font-size:3.57720685px;font-family:Arial;fill:#000000;stroke-width:0.13404053"
           id="tspan3259">SESIÓN 9 (2h.)</tspan></tspan></text>
    <text
       id="text3271"
       y="109.41283"
       x="204.82416"
       style="font-style:normal;font-variant:normal;font-weight:700;font-size:2.14464855px;line-height:229.95896339%;font-family:Arial;text-align:start;letter-spacing:0px;word-spacing:0px;text-anchor:start;fill:#000000;fill-opacity:1;stroke:none;stroke-width:0.13404053"
       xml:space="preserve"><tspan
         id="tspan3267"
         y="109.41283"
         x="204.82416"
         sodipodi:role="line"
         style="font-size:3.01224089px;stroke-width:0.13404053">Actividad lúdica: jugar a los juegos de los compañeros</tspan><tspan
         y="114.58388"
         x="204.82416"
         sodipodi:role="line"
         style="font-size:3.01224089px;stroke-width:0.13404053"
         id="tspan3479">Actividad 11: rúbrica sobre funcionamiento de los juegos</tspan><tspan
         y="119.75494"
         x="204.82416"
         sodipodi:role="line"
         style="font-size:3.01224089px;stroke-width:0.13404053"
         id="tspan3269">de los compañeros y propuestas de mejora.</tspan></text>
    <path
       sodipodi:nodetypes="scsscccccsssccccsscccssssccccscccsssscsscsssscccssssccc"
       inkscape:connector-curvature="0"
       id="path3275"
       d="m 199.88456,114.50228 c -0.0142,-0.0936 0.0265,-0.27754 0.0837,-0.37786 0.13622,-0.23889 0.40774,-0.37634 0.67182,-0.34005 0.0659,0.009 0.22468,0.0575 0.22468,0.0686 0,0.003 -0.0223,0.0318 -0.0496,0.0655 -0.13317,0.16481 -0.21094,0.35448 -0.22473,0.54805 l -0.006,0.0783 h -0.34692 -0.34692 z m 0.84045,-0.0282 c 0.0112,-0.13479 0.0661,-0.29114 0.14053,-0.40046 0.0423,-0.0621 0.14688,-0.16845 0.21082,-0.21427 0.0702,-0.0503 0.1886,-0.10584 0.27778,-0.13029 0.10035,-0.0275 0.31615,-0.0275 0.41649,0 0.0892,0.0245 0.20757,0.08 0.27779,0.13029 0.0639,0.0458 0.16849,0.15207 0.21083,0.21427 0.0744,0.10932 0.12929,0.26567 0.14053,0.40046 l 0.006,0.0707 h -0.84329 -0.84328 z m 1.81224,0.0271 c 0,-0.0632 -0.0227,-0.18351 -0.0501,-0.26542 -0.0406,-0.12158 -0.0853,-0.20088 -0.1803,-0.31994 -0.0268,-0.0335 -0.0472,-0.0619 -0.0455,-0.0633 0.002,-6.6e-4 0.0232,-0.0107 0.0478,-0.021 0.17705,-0.074 0.3795,-0.068 0.55661,0.0165 0.11123,0.0531 0.22522,0.16142 0.29071,0.27625 0.0572,0.10032 0.0979,0.28425 0.0837,0.37787 l -0.006,0.0424 h -0.34824 -0.34825 z m -0.0179,-0.79855 c -0.19747,-0.0211 -0.34295,-0.16821 -0.37081,-0.37527 -0.0211,-0.15703 0.0818,-0.34193 0.23089,-0.4147 0.1708,-0.0834 0.35194,-0.0536 0.48526,0.0797 0.19452,0.19451 0.15757,0.50544 -0.0777,0.65398 -0.0752,0.0474 -0.16767,0.067 -0.26762,0.0564 z m -2.09282,-0.0154 c -0.19484,-0.0626 -0.31779,-0.26181 -0.28606,-0.46349 0.0357,-0.22692 0.25343,-0.38836 0.47575,-0.35274 0.29511,0.0472 0.45168,0.36913 0.30465,0.62618 -0.0505,0.0882 -0.13243,0.15439 -0.23347,0.18842 -0.0701,0.0236 -0.19014,0.0244 -0.26087,9.4e-4 z m 1.01107,-0.13581 c -0.22589,-0.0592 -0.38212,-0.27755 -0.36426,-0.50919 0.0135,-0.17483 0.12051,-0.33171 0.27693,-0.40595 0.14313,-0.0679 0.28109,-0.0679 0.42422,0 0.30199,0.14331 0.37251,0.54424 0.13745,0.78148 -0.0716,0.0722 -0.13744,0.11083 -0.22933,0.13433 -0.0863,0.0221 -0.15887,0.0218 -0.24501,-5e-4 z"
       style="fill:#000000;fill-opacity:1;stroke-width:0.00894367" />
    <path
       style="fill:#000000;fill-opacity:1;stroke-width:0.00894367"
       d="m 199.88456,109.02163 c -0.0142,-0.0936 0.0265,-0.27754 0.0837,-0.37786 0.13622,-0.23889 0.40774,-0.37634 0.67182,-0.34005 0.0659,0.009 0.22468,0.0575 0.22468,0.0686 0,0.003 -0.0223,0.0318 -0.0496,0.0655 -0.13317,0.16481 -0.21094,0.35448 -0.22473,0.54805 l -0.006,0.0783 h -0.34692 -0.34692 z m 0.84045,-0.0282 c 0.0112,-0.13479 0.0661,-0.29114 0.14053,-0.40046 0.0423,-0.0621 0.14688,-0.16845 0.21082,-0.21427 0.0702,-0.0503 0.1886,-0.10584 0.27778,-0.13029 0.10035,-0.0275 0.31615,-0.0275 0.41649,0 0.0892,0.0245 0.20757,0.08 0.27779,0.13029 0.0639,0.0458 0.16849,0.15207 0.21083,0.21427 0.0744,0.10932 0.12929,0.26567 0.14053,0.40046 l 0.006,0.0707 h -0.84329 -0.84328 z m 1.81224,0.0271 c 0,-0.0632 -0.0227,-0.18351 -0.0501,-0.26542 -0.0406,-0.12158 -0.0853,-0.20088 -0.1803,-0.31994 -0.0268,-0.0335 -0.0472,-0.0619 -0.0455,-0.0633 0.002,-6.6e-4 0.0232,-0.0107 0.0478,-0.021 0.17705,-0.074 0.3795,-0.068 0.55661,0.0165 0.11123,0.0531 0.22522,0.16142 0.29071,0.27625 0.0572,0.10032 0.0979,0.28425 0.0837,0.37787 l -0.006,0.0424 h -0.34824 -0.34825 z m -0.0179,-0.79855 c -0.19747,-0.0211 -0.34295,-0.16821 -0.37081,-0.37527 -0.0211,-0.15703 0.0818,-0.34193 0.23089,-0.4147 0.1708,-0.0834 0.35194,-0.0536 0.48526,0.0797 0.19452,0.19451 0.15757,0.50544 -0.0777,0.65398 -0.0752,0.0474 -0.16767,0.067 -0.26762,0.0564 z m -2.09282,-0.0154 c -0.19484,-0.0626 -0.31779,-0.26181 -0.28606,-0.46349 0.0357,-0.22692 0.25343,-0.38836 0.47575,-0.35274 0.29511,0.0472 0.45168,0.36913 0.30465,0.62618 -0.0505,0.0882 -0.13243,0.15439 -0.23347,0.18842 -0.0701,0.0236 -0.19014,0.0244 -0.26087,9.4e-4 z m 1.01107,-0.13581 c -0.22589,-0.0592 -0.38212,-0.27755 -0.36426,-0.50919 0.0135,-0.17483 0.12051,-0.33171 0.27693,-0.40595 0.14313,-0.0679 0.28109,-0.0679 0.42422,0 0.30199,0.14331 0.37251,0.54424 0.13745,0.78148 -0.0716,0.0722 -0.13744,0.11083 -0.22933,0.13433 -0.0863,0.0221 -0.15887,0.0218 -0.24501,-5e-4 z"
       id="path3481"
       inkscape:connector-curvature="0"
       sodipodi:nodetypes="scsscccccsssccccsscccssssccccscccsssscsscsssscccssssccc" />
    <path
       sodipodi:nodetypes="scsscccccsssccccsscccssssccccscccsssscsscsssscccssssccc"
       inkscape:connector-curvature="0"
       id="path3483"
       d="m 104.88456,261.7166 c -0.0142,-0.0936 0.0265,-0.27754 0.0837,-0.37786 0.13622,-0.23889 0.40774,-0.37634 0.67182,-0.34005 0.0659,0.009 0.22468,0.0575 0.22468,0.0686 0,0.003 -0.0223,0.0318 -0.0496,0.0655 -0.13317,0.16481 -0.21094,0.35448 -0.22473,0.54805 l -0.006,0.0783 h -0.34692 -0.34692 z m 0.84045,-0.0282 c 0.0112,-0.13479 0.0661,-0.29114 0.14053,-0.40046 0.0423,-0.0621 0.14688,-0.16845 0.21082,-0.21427 0.0702,-0.0503 0.1886,-0.10584 0.27778,-0.13029 0.10035,-0.0275 0.31615,-0.0275 0.41649,0 0.0892,0.0245 0.20757,0.08 0.27779,0.13029 0.0639,0.0458 0.16849,0.15207 0.21083,0.21427 0.0744,0.10932 0.12929,0.26567 0.14053,0.40046 l 0.006,0.0707 h -0.84329 -0.84328 z m 1.81224,0.0271 c 0,-0.0632 -0.0227,-0.18351 -0.0501,-0.26542 -0.0406,-0.12158 -0.0853,-0.20088 -0.1803,-0.31994 -0.0268,-0.0335 -0.0472,-0.0619 -0.0455,-0.0633 0.002,-6.6e-4 0.0232,-0.0107 0.0478,-0.021 0.17705,-0.074 0.3795,-0.068 0.55661,0.0165 0.11123,0.0531 0.22522,0.16142 0.29071,0.27625 0.0572,0.10032 0.0979,0.28425 0.0837,0.37787 l -0.006,0.0424 h -0.34824 -0.34825 z m -0.0179,-0.79855 c -0.19747,-0.0211 -0.34295,-0.16821 -0.37081,-0.37527 -0.0211,-0.15703 0.0818,-0.34193 0.23089,-0.4147 0.1708,-0.0834 0.35194,-0.0536 0.48526,0.0797 0.19452,0.19451 0.15757,0.50544 -0.0777,0.65398 -0.0752,0.0474 -0.16767,0.067 -0.26762,0.0564 z m -2.09282,-0.0154 c -0.19484,-0.0626 -0.31779,-0.26181 -0.28606,-0.46349 0.0357,-0.22692 0.25343,-0.38836 0.47575,-0.35274 0.29511,0.0472 0.45168,0.36913 0.30465,0.62618 -0.0505,0.0882 -0.13243,0.15439 -0.23347,0.18842 -0.0701,0.0236 -0.19014,0.0244 -0.26087,9.4e-4 z m 1.01107,-0.13581 c -0.22589,-0.0592 -0.38212,-0.27755 -0.36426,-0.50919 0.0135,-0.17483 0.12051,-0.33171 0.27693,-0.40595 0.14313,-0.0679 0.28109,-0.0679 0.42422,0 0.30199,0.14331 0.37251,0.54424 0.13745,0.78148 -0.0716,0.0722 -0.13744,0.11083 -0.22933,0.13433 -0.0863,0.0221 -0.15887,0.0218 -0.24501,-5e-4 z"
       style="fill:#000000;fill-opacity:1;stroke-width:0.00894367" />
    <rect
       style="opacity:1;fill:#b9d3eb;fill-opacity:1;stroke:none;stroke-width:1.28282166;stroke-linecap:square;stroke-linejoin:miter;stroke-miterlimit:4;stroke-dasharray:none;stroke-dashoffset:0;stroke-opacity:1;paint-order:normal"
       id="rect3344"
       width="90"
       height="44.483547"
       x="198.5"
       y="152.52232"
       rx="0"
       ry="3.5648842" />
    <text
       id="text3350"
       y="159.30902"
       x="230.99893"
       style="font-style:normal;font-variant:normal;font-weight:700;font-size:3.57720685px;line-height:125%;font-family:Arial;text-align:start;letter-spacing:0px;word-spacing:0px;text-anchor:start;fill:#000000;fill-opacity:1;stroke:none;stroke-width:0.13404053"
       xml:space="preserve"><tspan
         id="tspan3348"
         y="159.30902"
         x="230.99893"
         sodipodi:role="line"
         style="stroke-width:0.13404053"><tspan
           id="tspan3346"
           style="font-style:normal;font-variant:normal;font-weight:700;font-size:3.57720685px;font-family:Arial;fill:#000000;stroke-width:0.13404053"
           dy="0 0 0 0 0 0 0 0 0 0"
           dx="0 0 0 0 0 0 0 0 0 0">SESIÓN 10 (2h.)</tspan></tspan></text>
    <text
       xml:space="preserve"
       style="font-style:normal;font-variant:normal;font-weight:700;font-size:2.14464855px;line-height:229.95896339%;font-family:Arial;text-align:start;letter-spacing:0px;word-spacing:0px;text-anchor:start;fill:#000000;fill-opacity:1;stroke:none;stroke-width:0.13404053"
       x="204.82416"
       y="165.073"
       id="text3358"><tspan
         style="font-size:3.01224089px;stroke-width:0.13404053"
         sodipodi:role="line"
         x="204.82416"
         y="165.073"
         id="tspan3352">Actividad lúdica: jugar al juego del profesor </tspan><tspan
         style="font-size:3.01224089px;stroke-width:0.13404053"
         sodipodi:role="line"
         x="204.82416"
         y="170.24405"
         id="tspan3354">Actividad 11: rúbrica sobre funcionamiento del juego</tspan><tspan
         id="tspan3356"
         style="font-size:3.01224089px;stroke-width:0.13404053"
         sodipodi:role="line"
         x="204.82416"
         y="175.4151">del profesor y propuestas de mejora.</tspan></text>
    <path
       style="fill:#000000;fill-opacity:1;stroke-width:0.00894367"
       d="m 199.88456,170.16244 c -0.0142,-0.0936 0.0265,-0.27754 0.0837,-0.37786 0.13622,-0.23889 0.40774,-0.37634 0.67182,-0.34005 0.0659,0.009 0.22468,0.0575 0.22468,0.0686 0,0.003 -0.0223,0.0318 -0.0496,0.0655 -0.13317,0.16481 -0.21094,0.35448 -0.22473,0.54805 l -0.006,0.0783 h -0.34692 -0.34692 z m 0.84045,-0.0282 c 0.0112,-0.13479 0.0661,-0.29114 0.14053,-0.40046 0.0423,-0.0621 0.14688,-0.16845 0.21082,-0.21427 0.0702,-0.0503 0.1886,-0.10584 0.27778,-0.13029 0.10035,-0.0275 0.31615,-0.0275 0.41649,0 0.0892,0.0245 0.20757,0.08 0.27779,0.13029 0.0639,0.0458 0.16849,0.15207 0.21083,0.21427 0.0744,0.10932 0.12929,0.26567 0.14053,0.40046 l 0.006,0.0707 h -0.84329 -0.84328 z m 1.81224,0.0271 c 0,-0.0632 -0.0227,-0.18351 -0.0501,-0.26542 -0.0406,-0.12158 -0.0853,-0.20088 -0.1803,-0.31994 -0.0268,-0.0335 -0.0472,-0.0619 -0.0455,-0.0633 0.002,-6.6e-4 0.0232,-0.0107 0.0478,-0.021 0.17705,-0.074 0.3795,-0.068 0.55661,0.0165 0.11123,0.0531 0.22522,0.16142 0.29071,0.27625 0.0572,0.10032 0.0979,0.28425 0.0837,0.37787 l -0.006,0.0424 h -0.34824 -0.34825 z m -0.0179,-0.79855 c -0.19747,-0.0211 -0.34295,-0.16821 -0.37081,-0.37527 -0.0211,-0.15703 0.0818,-0.34193 0.23089,-0.4147 0.1708,-0.0834 0.35194,-0.0536 0.48526,0.0797 0.19452,0.19451 0.15757,0.50544 -0.0777,0.65398 -0.0752,0.0474 -0.16767,0.067 -0.26762,0.0564 z m -2.09282,-0.0154 c -0.19484,-0.0626 -0.31779,-0.26181 -0.28606,-0.46349 0.0357,-0.22692 0.25343,-0.38836 0.47575,-0.35274 0.29511,0.0472 0.45168,0.36913 0.30465,0.62618 -0.0505,0.0882 -0.13243,0.15439 -0.23347,0.18842 -0.0701,0.0236 -0.19014,0.0244 -0.26087,9.4e-4 z m 1.01107,-0.13581 c -0.22589,-0.0592 -0.38212,-0.27755 -0.36426,-0.50919 0.0135,-0.17483 0.12051,-0.33171 0.27693,-0.40595 0.14313,-0.0679 0.28109,-0.0679 0.42422,0 0.30199,0.14331 0.37251,0.54424 0.13745,0.78148 -0.0716,0.0722 -0.13744,0.11083 -0.22933,0.13433 -0.0863,0.0221 -0.15887,0.0218 -0.24501,-5e-4 z"
       id="path3362"
       inkscape:connector-curvature="0"
       sodipodi:nodetypes="scsscccccsssccccsscccssssccccscccsssscsscsssscccssssccc" />
    <path
       style="fill:#000000;fill-opacity:1;stroke-width:0.00894367"
       d="m 199.88456,164.98889 c -0.0142,-0.0936 0.0265,-0.27754 0.0837,-0.37786 0.13622,-0.23889 0.40774,-0.37634 0.67182,-0.34005 0.0659,0.009 0.22468,0.0575 0.22468,0.0686 0,0.003 -0.0223,0.0318 -0.0496,0.0655 -0.13317,0.16481 -0.21094,0.35448 -0.22473,0.54805 l -0.006,0.0783 h -0.34692 -0.34692 z m 0.84045,-0.0282 c 0.0112,-0.13479 0.0661,-0.29114 0.14053,-0.40046 0.0423,-0.0621 0.14688,-0.16845 0.21082,-0.21427 0.0702,-0.0503 0.1886,-0.10584 0.27778,-0.13029 0.10035,-0.0275 0.31615,-0.0275 0.41649,0 0.0892,0.0245 0.20757,0.08 0.27779,0.13029 0.0639,0.0458 0.16849,0.15207 0.21083,0.21427 0.0744,0.10932 0.12929,0.26567 0.14053,0.40046 l 0.006,0.0707 h -0.84329 -0.84328 z m 1.81224,0.0271 c 0,-0.0632 -0.0227,-0.18351 -0.0501,-0.26542 -0.0406,-0.12158 -0.0853,-0.20088 -0.1803,-0.31994 -0.0268,-0.0335 -0.0472,-0.0619 -0.0455,-0.0633 0.002,-6.6e-4 0.0232,-0.0107 0.0478,-0.021 0.17705,-0.074 0.3795,-0.068 0.55661,0.0165 0.11123,0.0531 0.22522,0.16142 0.29071,0.27625 0.0572,0.10032 0.0979,0.28425 0.0837,0.37787 l -0.006,0.0424 h -0.34824 -0.34825 z m -0.0179,-0.79855 c -0.19747,-0.0211 -0.34295,-0.16821 -0.37081,-0.37527 -0.0211,-0.15703 0.0818,-0.34193 0.23089,-0.4147 0.1708,-0.0834 0.35194,-0.0536 0.48526,0.0797 0.19452,0.19451 0.15757,0.50544 -0.0777,0.65398 -0.0752,0.0474 -0.16767,0.067 -0.26762,0.0564 z m -2.09282,-0.0154 c -0.19484,-0.0626 -0.31779,-0.26181 -0.28606,-0.46349 0.0357,-0.22692 0.25343,-0.38836 0.47575,-0.35274 0.29511,0.0472 0.45168,0.36913 0.30465,0.62618 -0.0505,0.0882 -0.13243,0.15439 -0.23347,0.18842 -0.0701,0.0236 -0.19014,0.0244 -0.26087,9.4e-4 z m 1.01107,-0.13581 c -0.22589,-0.0592 -0.38212,-0.27755 -0.36426,-0.50919 0.0135,-0.17483 0.12051,-0.33171 0.27693,-0.40595 0.14313,-0.0679 0.28109,-0.0679 0.42422,0 0.30199,0.14331 0.37251,0.54424 0.13745,0.78148 -0.0716,0.0722 -0.13744,0.11083 -0.22933,0.13433 -0.0863,0.0221 -0.15887,0.0218 -0.24501,-5e-4 z"
       id="path3485"
       inkscape:connector-curvature="0"
       sodipodi:nodetypes="scsscccccsssccccsscccssssccccscccsssscsscsssscccssssccc" />
    <rect
       ry="6.3274336"
       rx="0"
       y="207.27538"
       x="198.5"
       height="78.95536"
       width="90"
       id="rect3366"
       style="opacity:1;fill:#ffdba5;fill-opacity:1;stroke:none;stroke-width:1.70906031;stroke-linecap:square;stroke-linejoin:miter;stroke-miterlimit:4;stroke-dasharray:none;stroke-dashoffset:0;stroke-opacity:1;paint-order:normal" />
    <text
       xml:space="preserve"
       style="font-style:normal;font-variant:normal;font-weight:700;font-size:3.57720685px;line-height:125%;font-family:Arial;text-align:start;letter-spacing:0px;word-spacing:0px;text-anchor:start;fill:#000000;fill-opacity:1;stroke:none;stroke-width:0.13404053"
       x="230.99893"
       y="214.96916"
       id="text3372"><tspan
         style="stroke-width:0.13404053"
         sodipodi:role="line"
         x="230.99893"
         y="214.96916"
         id="tspan3370"><tspan
           dx="0 0 0 0 0 0 0 0 0 0"
           dy="0 0 0 0 0 0 0 0 0 0"
           style="font-style:normal;font-variant:normal;font-weight:700;font-size:3.57720685px;font-family:Arial;fill:#000000;stroke-width:0.13404053"
           id="tspan3368">SESIÓN 11 (2h.)</tspan></tspan></text>
    <text
       id="text3380"
       y="220.73314"
       x="204.82416"
       style="font-style:normal;font-variant:normal;font-weight:700;font-size:2.14464855px;line-height:229.95896339%;font-family:Arial;text-align:start;letter-spacing:0px;word-spacing:0px;text-anchor:start;fill:#000000;fill-opacity:1;stroke:none;stroke-width:0.13404053"
       xml:space="preserve"><tspan
         y="220.73314"
         x="204.82416"
         sodipodi:role="line"
         style="font-size:3.01224089px;stroke-width:0.13404053"
         id="tspan3487">Actividad 12: Prueba objetiva “tipo test” con preguntas </tspan><tspan
         y="225.90419"
         x="204.82416"
         sodipodi:role="line"
         style="font-size:3.01224089px;stroke-width:0.13404053"
         id="tspan3497">hechas por los alumnos y corregidas por el profesor.</tspan><tspan
         y="231.07524"
         x="204.82416"
         sodipodi:role="line"
         style="font-size:3.01224089px;stroke-width:0.13404053"
         id="tspan3489">Entrega de trofeos a los mejores jugadores de las </tspan><tspan
         y="236.24631"
         x="204.82416"
         sodipodi:role="line"
         style="font-size:3.01224089px;stroke-width:0.13404053"
         id="tspan3378">sesiones 8, 9 y 10.</tspan></text>
    <path
       sodipodi:nodetypes="ssccccsscccscssssccc"
       inkscape:connector-curvature="0"
       id="path3382"
       d="m 201.56224,220.6209 c 0.0112,-0.13478 0.0661,-0.29114 0.14053,-0.40047 0.0423,-0.0621 0.14688,-0.16844 0.21082,-0.21426 0.0702,-0.0503 0.18861,-0.10584 0.27779,-0.13029 0.10034,-0.0275 0.31615,-0.0275 0.41649,0 0.0892,0.0245 0.20757,0.08 0.27778,0.13029 0.0639,0.0458 0.16849,0.15207 0.21083,0.21426 0.0744,0.10933 0.12929,0.26569 0.14053,0.40047 l 0.006,0.0706 h -0.84329 -0.84328 z m 0.71259,-0.92268 c -0.22588,-0.0592 -0.38212,-0.27753 -0.36425,-0.50918 0.0135,-0.17483 0.1205,-0.33171 0.27693,-0.40594 0.14313,-0.0679 0.28109,-0.0679 0.42421,0 0.302,0.1433 0.37252,0.54422 0.13746,0.78147 -0.0716,0.0722 -0.13745,0.11083 -0.22934,0.13432 -0.0863,0.0221 -0.15887,0.0219 -0.24501,-5e-4 z"
       style="fill:#000000;fill-opacity:1;stroke-width:0.00894367" />
    <path
       sodipodi:nodetypes="scsscccccsssccccsscccssssccccscccsssscsscsssscccssssccc"
       inkscape:connector-curvature="0"
       id="path3384"
       d="m 199.88456,230.92526 c -0.0142,-0.0936 0.0265,-0.27754 0.0837,-0.37786 0.13622,-0.23889 0.40774,-0.37634 0.67182,-0.34005 0.0659,0.009 0.22468,0.0575 0.22468,0.0686 0,0.003 -0.0223,0.0318 -0.0496,0.0655 -0.13317,0.16481 -0.21094,0.35448 -0.22473,0.54805 l -0.006,0.0783 h -0.34692 -0.34692 z m 0.84045,-0.0282 c 0.0112,-0.13479 0.0661,-0.29114 0.14053,-0.40046 0.0423,-0.0621 0.14688,-0.16845 0.21082,-0.21427 0.0702,-0.0503 0.1886,-0.10584 0.27778,-0.13029 0.10035,-0.0275 0.31615,-0.0275 0.41649,0 0.0892,0.0245 0.20757,0.08 0.27779,0.13029 0.0639,0.0458 0.16849,0.15207 0.21083,0.21427 0.0744,0.10932 0.12929,0.26567 0.14053,0.40046 l 0.006,0.0707 h -0.84329 -0.84328 z m 1.81224,0.0271 c 0,-0.0632 -0.0227,-0.18351 -0.0501,-0.26542 -0.0406,-0.12158 -0.0853,-0.20088 -0.1803,-0.31994 -0.0268,-0.0335 -0.0472,-0.0619 -0.0455,-0.0633 0.002,-6.6e-4 0.0232,-0.0107 0.0478,-0.021 0.17705,-0.074 0.3795,-0.068 0.55661,0.0165 0.11123,0.0531 0.22522,0.16142 0.29071,0.27625 0.0572,0.10032 0.0979,0.28425 0.0837,0.37787 l -0.006,0.0424 h -0.34824 -0.34825 z m -0.0179,-0.79855 c -0.19747,-0.0211 -0.34295,-0.16821 -0.37081,-0.37527 -0.0211,-0.15703 0.0818,-0.34193 0.23089,-0.4147 0.1708,-0.0834 0.35194,-0.0536 0.48526,0.0797 0.19452,0.19451 0.15757,0.50544 -0.0777,0.65398 -0.0752,0.0474 -0.16767,0.067 -0.26762,0.0564 z m -2.09282,-0.0154 c -0.19484,-0.0626 -0.31779,-0.26181 -0.28606,-0.46349 0.0357,-0.22692 0.25343,-0.38836 0.47575,-0.35274 0.29511,0.0472 0.45168,0.36913 0.30465,0.62618 -0.0505,0.0882 -0.13243,0.15439 -0.23347,0.18842 -0.0701,0.0236 -0.19014,0.0244 -0.26087,9.4e-4 z m 1.01107,-0.13581 c -0.22589,-0.0592 -0.38212,-0.27755 -0.36426,-0.50919 0.0135,-0.17483 0.12051,-0.33171 0.27693,-0.40595 0.14313,-0.0679 0.28109,-0.0679 0.42422,0 0.30199,0.14331 0.37251,0.54424 0.13745,0.78148 -0.0716,0.0722 -0.13744,0.11083 -0.22933,0.13433 -0.0863,0.0221 -0.15887,0.0218 -0.24501,-5e-4 z"
       style="fill:#000000;fill-opacity:1;stroke-width:0.00894367" />
    <path
       style="fill:#000000;fill-opacity:1;stroke:#ffdba5;stroke-width:0.68313557;stroke-miterlimit:4;stroke-dasharray:none"
       d="m 234.71463,278.30734 c -0.32023,-0.32023 -0.32899,-0.38284 -0.32899,-2.35169 0,-1.96885 0.009,-2.03147 0.32899,-2.3517 0.29117,-0.29118 0.44528,-0.329 1.34036,-0.329 h 1.01134 v -1.27942 c 0,-1.17968 0.0256,-1.30506 0.329,-1.60841 0.30334,-0.30335 0.42872,-0.32901 1.60842,-0.32901 h 1.27942 v -2.19546 -2.19547 l -0.77071,-0.58073 c -0.42388,-0.31941 -1.20195,-1.01134 -1.72904,-1.53763 l -0.95837,-0.95688 -0.91483,-0.0937 c -4.46092,-0.45703 -7.46733,-3.85335 -8.2849,-9.35938 -0.11522,-0.77597 -0.20948,-1.84314 -0.20948,-2.37149 0,-0.84124 0.0409,-1.00155 0.32899,-1.28965 0.31692,-0.31691 0.39563,-0.32899 2.14455,-0.32899 h 1.81557 v -0.86493 c 0,-1.0073 0.16941,-1.45972 0.62423,-1.66694 0.23089,-0.10522 3.54792,-0.14882 11.31725,-0.14882 h 10.99064 l 0.32899,0.32899 c 0.29117,0.29117 0.32899,0.44528 0.32899,1.34035 v 1.01135 h 1.81557 c 1.74892,0 1.82763,0.0121 2.14455,0.32899 0.28811,0.2881 0.32899,0.44841 0.32899,1.28965 0,0.52835 -0.0942,1.59552 -0.20948,2.37149 -0.58257,3.92336 -2.22485,6.73558 -4.83154,8.27343 -0.8062,0.47563 -2.40571,0.97862 -3.45335,1.08595 l -0.91484,0.0937 -0.95837,0.95688 c -0.52709,0.52629 -1.30516,1.21822 -1.72904,1.53763 l -0.77071,0.58073 v 2.19547 2.19546 h 1.27942 c 1.1797,0 1.30508,0.0256 1.60842,0.32901 0.30335,0.30335 0.329,0.42873 0.329,1.60841 v 1.27942 h 1.01134 c 0.89508,0 1.04919,0.0379 1.34036,0.329 0.32023,0.32023 0.32899,0.38285 0.32899,2.3517 0,1.96885 -0.009,2.03146 -0.32899,2.35169 l -0.329,0.329 H 243.5 235.04363 Z m 15.75518,-2.35169 v -0.53614 H 243.5 236.53019 v 0.53614 0.53613 h 6.96981 6.96981 z m -2.6807,-3.21683 v -0.53614 H 243.5 239.21089 v 0.53614 0.53613 h 4.28911 4.28911 z m -3.21683,-5.28342 c 0,-1.43149 0.0354,-2.69487 0.0786,-2.80751 0.0432,-0.11263 0.57685,-0.56679 1.18584,-1.00926 4.07697,-2.96212 6.64721,-7.97047 7.24692,-14.12134 l 0.0882,-0.90474 h -9.67433 -9.67432 l 0.0856,0.83772 c 0.64591,6.32417 3.14097,11.19965 7.26481,14.19582 0.60335,0.43836 1.13236,0.88917 1.17558,1.0018 0.0433,0.11264 0.0786,1.37602 0.0786,2.80751 v 2.60271 h 1.07228 1.07228 z m -10.04215,-8.28761 c -1.03185,-1.88264 -1.90692,-4.44533 -2.42572,-7.10383 l -0.1504,-0.7707 h -1.19681 c -1.38494,0 -1.29643,-0.14845 -0.99904,1.67543 0.40781,2.50113 1.16618,4.22771 2.4159,5.5003 0.74409,0.75772 2.2225,1.67056 2.70558,1.67056 0.12265,0 0.008,-0.32085 -0.34951,-0.97176 z m 18.58281,0.56727 c 2.3918,-1.19519 3.79105,-3.71177 4.26526,-7.6711 l 0.0923,-0.7707 h -1.21224 -1.21226 l -0.1504,0.7707 c -0.5188,2.6585 -1.39387,5.22119 -2.42573,7.10383 -0.60999,1.11294 -0.55174,1.16432 0.64307,0.56727 z"
       id="path3517"
       inkscape:connector-curvature="0"
       sodipodi:nodetypes="cscscscsccccccscscscscsccscscsccsccccccscscscscccccccccccccccccccccccsccsccccccscccscccscsscccccccsc" />
    <path
       sodipodi:type="star"
       style="opacity:1;fill:#000000;fill-opacity:1;stroke:#ffdba5;stroke-width:0.62199998;stroke-linecap:square;stroke-linejoin:miter;stroke-miterlimit:4;stroke-dasharray:none;stroke-dashoffset:0;stroke-opacity:1;paint-order:normal"
       id="path3519"
       sodipodi:sides="5"
       sodipodi:cx="215.326"
       sodipodi:cy="246.38333"
       sodipodi:r1="6.5166645"
       sodipodi:r2="3.2767808"
       sodipodi:arg1="1.3089969"
       sodipodi:arg2="1.9373155"
       inkscape:flatsided="false"
       inkscape:rounded="0.11"
       inkscape:randomized="0"
       d="m 217.01264,252.67795 c -0.45889,0.12296 -2.4174,-3.06523 -2.86093,-3.23548 -0.44353,-0.17025 -4.03229,0.88853 -4.29104,0.49009 -0.25875,-0.39844 2.16818,-3.24629 2.19304,-3.72072 0.0249,-0.47443 -2.09109,-3.56037 -1.79211,-3.92958 0.29898,-0.36921 3.75742,1.0589 4.21631,0.93594 0.4589,-0.12296 2.73993,-3.08895 3.18346,-2.9187 0.44353,0.17026 0.15402,3.90073 0.41277,4.29917 0.25875,0.39844 3.78446,1.65128 3.7596,2.12572 -0.0249,0.47443 -3.66222,1.35188 -3.9612,1.72109 -0.29898,0.36921 -0.401,4.10951 -0.8599,4.23247 z"
       inkscape:transform-center-x="-0.27146805"
       inkscape:transform-center-y="-0.34743642"
       transform="rotate(-13.114836,252.34523,250.63872)" />
    <path
       inkscape:transform-center-y="-0.30491623"
       inkscape:transform-center-x="0.10448236"
       d="m 222.31763,264.67416 c -0.45889,0.12296 -2.4174,-3.06522 -2.86093,-3.23547 -0.44352,-0.17026 -4.03229,0.88853 -4.29104,0.49009 -0.25875,-0.39844 2.16818,-3.24629 2.19305,-3.72073 0.0249,-0.47443 -2.09109,-3.56036 -1.79211,-3.92957 0.29898,-0.36921 3.75741,1.0589 4.2163,0.93594 0.4589,-0.12296 2.73993,-3.08896 3.18346,-2.9187 0.44353,0.17025 0.15403,3.90073 0.41278,4.29916 0.25875,0.39844 3.78445,1.65129 3.75959,2.12572 -0.0249,0.47443 -3.66222,1.35188 -3.9612,1.72109 -0.29898,0.36921 -0.401,4.10951 -0.8599,4.23247 z"
       inkscape:randomized="0"
       inkscape:rounded="0.11"
       inkscape:flatsided="false"
       sodipodi:arg2="1.9373155"
       sodipodi:arg1="1.3089969"
       sodipodi:r2="3.2767808"
       sodipodi:r1="6.5166645"
       sodipodi:cy="258.37955"
       sodipodi:cx="220.631"
       sodipodi:sides="5"
       id="path3521"
       style="opacity:1;fill:#000000;fill-opacity:1;stroke:#ffdba5;stroke-width:0.62199998;stroke-linecap:square;stroke-linejoin:miter;stroke-miterlimit:4;stroke-dasharray:none;stroke-dashoffset:0;stroke-opacity:1;paint-order:normal"
       sodipodi:type="star"
       transform="matrix(-0.08733278,-0.65781612,0.65781612,-0.08733278,73.180709,438.09538)" />
    <path
       transform="matrix(0.17406506,-0.49660322,0.49660322,0.17406506,40.458013,333.38334)"
       sodipodi:type="star"
       style="opacity:1;fill:#000000;fill-opacity:1;stroke:#ffdba5;stroke-width:0.62199998;stroke-linecap:square;stroke-linejoin:miter;stroke-miterlimit:4;stroke-dasharray:none;stroke-dashoffset:0;stroke-opacity:1;paint-order:normal"
       id="path3523"
       sodipodi:sides="5"
       sodipodi:cx="220.631"
       sodipodi:cy="258.37955"
       sodipodi:r1="6.5166645"
       sodipodi:r2="3.2767808"
       sodipodi:arg1="1.3089969"
       sodipodi:arg2="1.9373155"
       inkscape:flatsided="false"
       inkscape:rounded="0.11"
       inkscape:randomized="0"
       d="m 222.31763,264.67416 c -0.45889,0.12296 -2.4174,-3.06522 -2.86093,-3.23547 -0.44352,-0.17026 -4.03229,0.88853 -4.29104,0.49009 -0.25875,-0.39844 2.16818,-3.24629 2.19305,-3.72073 0.0249,-0.47443 -2.09109,-3.56036 -1.79211,-3.92957 0.29898,-0.36921 3.75741,1.0589 4.2163,0.93594 0.4589,-0.12296 2.73993,-3.08896 3.18346,-2.9187 0.44353,0.17025 0.15403,3.90073 0.41278,4.29916 0.25875,0.39844 3.78445,1.65129 3.75959,2.12572 -0.0249,0.47443 -3.66222,1.35188 -3.9612,1.72109 -0.29898,0.36921 -0.401,4.10951 -0.8599,4.23247 z"
       inkscape:transform-center-x="-0.24613364"
       inkscape:transform-center-y="0.078388162" />
    <path
       inkscape:transform-center-y="-0.18025643"
       inkscape:transform-center-x="0.4372303"
       d="m -273.41978,-251.55817 c -0.45889,0.12296 -2.4174,-3.06522 -2.86093,-3.23547 -0.44353,-0.17026 -4.03229,0.88853 -4.29104,0.49009 -0.25875,-0.39844 2.16818,-3.24629 2.19305,-3.72073 0.0249,-0.47443 -2.09109,-3.56036 -1.79211,-3.92957 0.29898,-0.36921 3.75741,1.0589 4.2163,0.93594 0.4589,-0.12296 2.73993,-3.08896 3.18346,-2.9187 0.44353,0.17025 0.15403,3.90073 0.41277,4.29916 0.25875,0.39844 3.78446,1.65129 3.7596,2.12572 -0.0249,0.47443 -3.66222,1.35188 -3.9612,1.72109 -0.29898,0.36921 -0.401,4.10951 -0.8599,4.23247 z"
       inkscape:randomized="0"
       inkscape:rounded="0.11"
       inkscape:flatsided="false"
       sodipodi:arg2="1.9373155"
       sodipodi:arg1="1.3089969"
       sodipodi:r2="3.2767808"
       sodipodi:r1="6.5166645"
       sodipodi:cy="-257.85278"
       sodipodi:cx="-275.10641"
       sodipodi:sides="5"
       id="path3525"
       style="opacity:1;fill:#000000;fill-opacity:1;stroke:#ffdba5;stroke-width:0.62199998;stroke-linecap:square;stroke-linejoin:miter;stroke-miterlimit:4;stroke-dasharray:none;stroke-dashoffset:0;stroke-opacity:1;paint-order:normal"
       sodipodi:type="star"
       transform="rotate(-177.77347,-0.52336152,0.7484305)" />
    <path
       transform="matrix(-0.56484535,-0.34827977,0.34827977,-0.56484535,303.46342,475.63114)"
       sodipodi:type="star"
       style="opacity:1;fill:#000000;fill-opacity:1;stroke:#ffdba5;stroke-width:0.62199998;stroke-linecap:square;stroke-linejoin:miter;stroke-miterlimit:4;stroke-dasharray:none;stroke-dashoffset:0;stroke-opacity:1;paint-order:normal"
       id="path3527"
       sodipodi:sides="5"
       sodipodi:cx="220.631"
       sodipodi:cy="258.37955"
       sodipodi:r1="6.5166645"
       sodipodi:r2="3.2767808"
       sodipodi:arg1="1.3089969"
       sodipodi:arg2="1.9373155"
       inkscape:flatsided="false"
       inkscape:rounded="0.11"
       inkscape:randomized="0"
       d="m 222.31763,264.67416 c -0.45889,0.12296 -2.4174,-3.06522 -2.86093,-3.23547 -0.44352,-0.17026 -4.03229,0.88853 -4.29104,0.49009 -0.25875,-0.39844 2.16818,-3.24629 2.19305,-3.72073 0.0249,-0.47443 -2.09109,-3.56036 -1.79211,-3.92957 0.29898,-0.36921 3.75741,1.0589 4.2163,0.93594 0.4589,-0.12296 2.73993,-3.08896 3.18346,-2.9187 0.44353,0.17025 0.15403,3.90073 0.41278,4.29916 0.25875,0.39844 3.78445,1.65129 3.75959,2.12572 -0.0249,0.47443 -3.66222,1.35188 -3.9612,1.72109 -0.29898,0.36921 -0.401,4.10951 -0.8599,4.23247 z"
       inkscape:transform-center-x="-0.37586874"
       inkscape:transform-center-y="-0.030760839" />
    <path
       inkscape:transform-center-y="-0.082082647"
       inkscape:transform-center-x="-0.24253804"
       d="m 222.31763,264.67416 c -0.45889,0.12296 -2.4174,-3.06522 -2.86093,-3.23547 -0.44352,-0.17026 -4.03229,0.88853 -4.29104,0.49009 -0.25875,-0.39844 2.16818,-3.24629 2.19305,-3.72073 0.0249,-0.47443 -2.09109,-3.56036 -1.79211,-3.92957 0.29898,-0.36921 3.75741,1.0589 4.2163,0.93594 0.4589,-0.12296 2.73993,-3.08896 3.18346,-2.9187 0.44353,0.17025 0.15403,3.90073 0.41278,4.29916 0.25875,0.39844 3.78445,1.65129 3.75959,2.12572 -0.0249,0.47443 -3.66222,1.35188 -3.9612,1.72109 -0.29898,0.36921 -0.401,4.10951 -0.8599,4.23247 z"
       inkscape:randomized="0"
       inkscape:rounded="0.11"
       inkscape:flatsided="false"
       sodipodi:arg2="1.9373155"
       sodipodi:arg1="1.3089969"
       sodipodi:r2="3.2767808"
       sodipodi:r1="6.5166645"
       sodipodi:cy="258.37955"
       sodipodi:cx="220.631"
       sodipodi:sides="5"
       id="path3529"
       style="opacity:1;fill:#000000;fill-opacity:1;stroke:#ffdba5;stroke-width:0.62199998;stroke-linecap:square;stroke-linejoin:miter;stroke-miterlimit:4;stroke-dasharray:none;stroke-dashoffset:0;stroke-opacity:1;paint-order:normal"
       sodipodi:type="star"
       transform="matrix(-0.38158226,0.36236497,-0.36236497,-0.38158226,457.23968,284.50405)" />
  </g>
</svg>
